<?xml version="1.0" encoding="utf-8"?>
<!-- Generator: Adobe Illustrator 17.1.0, SVG Export Plug-In . SVG Version: 6.00 Build 0)  -->
<!DOCTYPE svg PUBLIC "-//W3C//DTD SVG 1.1//EN" "http://www.w3.org/Graphics/SVG/1.1/DTD/svg11.dtd">
<svg version="1.1" id="Layer_1" xmlns="http://www.w3.org/2000/svg" xmlns:xlink="http://www.w3.org/1999/xlink" x="0px" y="0px"
	 viewBox="0 0 200 100" enable-background="new 0 0 200 100" xml:space="preserve">
<g>
	<g>
		<path fill="#404041" d="M41.9,71.4c0.8-1.2,1.8-2.5,2.8-4.1c1.1-1.7,2.1-3.4,3.1-5.2c1.1-2,2.2-4,3.1-6c1-2.2,1.9-4.5,2.7-6.7
			c0.9-2.5,1.8-4.8,2.7-7l2.9-6.9c0.7-1.8,1.4-3.5,2.1-5.3l0.6-1.5c0.3-0.8,0.6-1.5,0.9-2.3c0.6-1.4,1.1-2.7,1.6-4l2.2-5.7l1.9-4.8
			c0.6-1.4,1-2.7,1.4-3.7L70.8,6l-1.3,2.3c-0.5,1-1.2,2.1-2,3.4l-3.4,6.1l-2.1,3.7c-0.7,1.2-1.4,2.5-2.1,3.8
			c-0.4,0.7-0.8,1.4-1.2,2.2l-0.8,1.4c-0.9,1.6-1.8,3.3-2.7,4.9l-3.5,6.6c-1.1,2.1-2.3,4.2-3.6,6.6c-1.2,2-2.4,4.2-3.4,6.4
			c-0.9,2-1.8,4.1-2.6,6.2c-0.7,1.9-1.4,3.8-2,5.7c-0.5,1.7-1,3.1-1.3,4.5c0.6,0.2,1.2,0.5,1.8,0.9C41.1,70.8,41.5,71.1,41.9,71.4z"
			/>
		<path fill="#F4803B" d="M44.3,76.2c-0.6-2.3-2.5-4.1-4.6-5.2c-2-1.1-4.4-1.6-6.6-0.9c-1.9,0.6-3.3,1.9-4.4,3.5
			c-0.7,1-1.2,2.1-1.5,3.3C27,78.1,27,79.2,27,80.4c0.1,2.1,0.4,4.1,0.2,6.1C27,89.2,26,91.7,24.7,94c3.6-0.1,7.3-1.6,10.3-3.4
			c3.4-1.9,6.7-4.5,8.4-8.1C44.4,80.6,44.9,78.4,44.3,76.2C44,74.9,45,78.5,44.3,76.2z"/>
		<path fill="#404041" d="M10.7,63.4c-4.2-5.3-6-11.1-5.2-16.9c0.4-2.7,2.4-3.6,7.6-3.6c0.9,0,1.9,0,2.9,0c1,0,2.1,0.1,3.1,0.1
			c3.3,0,7-0.2,9.9-2c3.4-2,5.4-6,7.3-9.8c2.6-5.1,5-10,10.4-10c0.3,0,0.6,0,0.9,0c4.3,0.4,8.4,1.3,12.3,2.6c0.3-0.5,0.6-1,0.8-1.5
			c-4.1-1.4-8.4-2.3-13-2.8c-0.4,0-0.7,0-1.1,0c-6.5,0-9.2,5.6-11.9,10.9c-1.8,3.6-3.7,7.4-6.6,9.1c-2.6,1.5-6,1.7-9,1.7
			c-1,0-2.1,0-3.1-0.1c-1,0-2-0.1-2.9-0.1c-3,0-8.6,0-9.3,5.1c-0.9,6.3,1.1,12.6,5.6,18.2c4.1,5.2,10.1,9.4,17.1,12.3
			c0.1-0.5,0.3-1.1,0.5-1.6C20.3,72.4,14.6,68.4,10.7,63.4z"/>
		<path fill="#404041" d="M76,31c-3.2-2.9-7-5.2-11.2-7.1c-0.2,0.5-0.4,1-0.6,1.6c4,1.8,7.6,4.1,10.7,6.8
			c6.9,6.1,10.3,13.7,9.7,21.3C83.2,68.1,67.2,79,47.3,79c-0.6,0-1.3,0-1.9,0c-0.1,0.6-0.2,1.1-0.3,1.7c0.8,0,1.5,0,2.2,0
			c20.8,0,37.5-11.6,38.9-27C87,45.5,83.4,37.4,76,31z"/>
	</g>
	<g>
		<path fill="#404041" d="M104.5,65.2c-1-0.1-2.1-0.1-3.3-0.1h-1.3l7.2-20.3c0.3-0.9,0.5-1.4,0.5-1.6c0-0.1,0-0.2,0-0.3l0,0
			c0.7,0,1.5,0,2.3,0c0.7,0,1.5,0,2.4,0l0,0c0,0,0,0.1,0,0.2c0,0.2,0.2,0.8,0.5,1.7l7.4,20.3c-0.2,0-0.5,0-0.8,0l-0.9,0
			c-0.3,0-0.5,0-0.7,0h-2.6l-1.6-4.8H106L104.5,65.2z M112.3,56.3l-2.5-7.7l-2.4,7.7H112.3z"/>
		<path fill="#404041" d="M130,56.4c-0.3,0-0.7,0-1.1,0c-0.4,0-0.9,0-1.7-0.1v8.7h-4.4V42.8c1.6-0.2,3.5-0.3,5.7-0.3
			c3.1,0,5.4,0.6,6.9,1.7c1.5,1.1,2.3,2.9,2.3,5.3c0,1.8-0.7,3.4-2.1,4.7c-0.5,0.4-1,0.8-1.6,1.1l3.4,7.2c0.7,1.5,1.2,2.4,1.5,2.6
			l-0.1,0.1c-1.1-0.2-2.8-0.2-5.1,0L130,56.4z M128.8,46.4c-0.6,0-1.1,0-1.6,0.1v6.4c0.5,0.1,1.2,0.1,1.9,0.1c0.7,0,1.3-0.1,1.8-0.2
			c0.5-0.1,0.9-0.3,1.3-0.6c0.8-0.6,1.2-1.5,1.2-2.6c0-1.2-0.4-2-1.2-2.5C131.5,46.6,130.3,46.4,128.8,46.4z"/>
		<path fill="#404041" d="M150.7,65.2c-0.5-0.1-1.9-0.1-4.1-0.1H146V46.6h-3.3c-1,0-1.6,0-1.7,0.1c-0.2,0.1-0.3,0.2-0.4,0.3l0,0
			v-4.3l0,0c0.4,0.1,1.4,0.2,3,0.2H154c1,0,1.6,0,1.7-0.1c0.2-0.1,0.3-0.2,0.4-0.3l0,0v4.3l0,0c-0.4-0.1-1.4-0.2-3-0.2h-2.5V65.2z"
			/>
		<path fill="#404041" d="M172.3,55.7c1.7,0,3.1-0.1,4.2-0.4l0.1,0.1l-1.2,3.9h-3.1v5.8H168v-5.8h-10.3l-0.1-1.2l9.2-15.1l5.4,0
			V55.7z M168,55.7v-7.9l-4.5,7.9H168z"/>
		<path fill="#404041" d="M192.1,55.7c1.7,0,3.1-0.1,4.2-0.4l0.1,0.1l-1.2,3.9h-3.1v5.8h-4.2v-5.8h-10.3l-0.1-1.2l9.2-15.1l5.4,0
			V55.7z M187.9,55.7v-7.9l-4.5,7.9H187.9z"/>
	</g>
</g>
</svg>
